HIERARCHY
ROOT Hips
{
    OFFSET 0.000000 0.000000 0.000000
    CHANNELS 6 Xposition Yposition Zposition Zrotation Xrotation Yrotation
        JOINT Chest
        {
            OFFSET -0.000000 28.596201 -0.000000
            CHANNELS 3 Zrotation Xrotation Yrotation
            JOINT Neck
            {
                OFFSET -0.000000 20.833183 0.000000
                CHANNELS 3 Zrotation Xrotation Yrotation
                JOINT Head
                {
                    OFFSET -0.000000 10.327778 0.000000
                    CHANNELS 3 Zrotation Xrotation Yrotation
                    End Site
                    {
                        OFFSET -0.000000 15.961117 0.000000
                    }
                }
            }
            JOINT LeftCollar
            {
                OFFSET -0.000000 20.833183 0.000000
                CHANNELS 3 Zrotation Xrotation Yrotation
                JOINT LeftShoulder
                {
                    OFFSET 18.777777 -0.000000 0.000000
                    CHANNELS 3 Zrotation Xrotation Yrotation
                    JOINT LeftElbow
                    {
                        OFFSET 23.016544 0.000000 0.000000
                        CHANNELS 3 Zrotation Xrotation Yrotation
                        JOINT LeftWrist
                        {
                            OFFSET 24.619797 0.000000 0.000000
                            CHANNELS 3 Zrotation Xrotation Yrotation
                            End Site
                            {
                                OFFSET 0.000000 -14.083333 0.000000
                            }
                        }
                    }
                }
            }
            JOINT RightCollar
            {
                OFFSET -0.000000 20.833183 0.000000
                CHANNELS 3 Zrotation Xrotation Yrotation
                JOINT RightShoulder
                {
                    OFFSET -18.777777 0.000000 0.000000
                    CHANNELS 3 Zrotation Xrotation Yrotation
                    JOINT RightElbow
                    {
                        OFFSET -23.016544 0.000000 0.000000
                        CHANNELS 3 Zrotation Xrotation Yrotation
                        JOINT RightWrist
                        {
                            OFFSET -24.619797 0.000000 0.000000
                            CHANNELS 3 Zrotation Xrotation Yrotation
                            End Site
                            {
                                OFFSET -0.000000 -14.083333 0.000000
                            }
                        }
                    }
                }
            }
        }
    JOINT LeftHip
    {
        OFFSET 11.266668 0.000000 0.000000
        CHANNELS 3 Zrotation Xrotation Yrotation
        JOINT LeftKnee
        {
            OFFSET -0.000000 -40.535309 0.000000
            CHANNELS 3 Zrotation Xrotation Yrotation
            JOINT LeftAnkle
            {
                OFFSET -0.000000 -39.958225 0.000000
                CHANNELS 3 Zrotation Xrotation Yrotation
                End Site
                {
                    OFFSET -0.000000 -4.694444 15.961117
                }
            }
        }
    }
    JOINT RightHip
    {
        OFFSET -11.266668 0.000000 0.000000
        CHANNELS 3 Zrotation Xrotation Yrotation
        JOINT RightKnee
        {
            OFFSET -0.000000 -40.535309 0.000000
            CHANNELS 3 Zrotation Xrotation Yrotation
            JOINT RightAnkle
            {
                OFFSET -0.000000 -39.958225 0.000000
                CHANNELS 3 Zrotation Xrotation Yrotation
                End Site
                {
                    OFFSET -0.000000 -4.694444 15.961117
                }
            }
        }
    }
}
MOTION
Frames:    13
Frame Time:    0.010000
15.243149    89.060631    -46.496754    6.921138    2.800724    -33.995842    4.712375    -6.129936    -1.560557    -9.831435    12.633109    -0.710271    1.377845    -13.693666    -1.810472    -15.669493    -3.319145    24.019085    -43.798164    65.618484    -25.317760    30.346960    -22.524176    -72.641739    123.095711    15.216242    48.658325    23.025045    0.260518    1.447203    34.927216    36.249424    6.778940    19.920937    14.800707    73.096420    -112.861237    -23.055565    8.976406    -2.526101    1.710009    -3.044492    2.267225    5.260665    3.866916    -1.975263    -10.708357    26.176147    -0.333326    -7.637476    0.506978    -9.162179    15.490515    7.252125    3.181198    -11.601849    -18.652721    
15.245843    89.080811    -46.508232    7.013863    2.758851    -34.113506    4.738629    -6.021746    -1.515698    -10.730218    12.472733    -0.320579    1.602225    -13.910004    -1.287375    -15.689639    -3.393326    24.545292    -43.865196    65.799843    -25.456881    30.428061    -22.631329    -72.692039    124.175018    16.138035    48.414448    22.962858    0.355540    2.119634    35.021191    36.350174    6.546149    20.010340    14.892058    72.924088    -112.787865    -23.164854    9.102916    -2.593415    1.681671    -2.908293    2.238412    5.273967    3.808437    -2.120422    -10.692675    26.168509    -0.424643    -7.586316    0.623113    -9.150143    15.321748    7.238306    3.160786    -11.544778    -18.629942    
15.103261    89.036522    -46.536575    6.735442    2.672102    -34.270996    4.916592    -5.656442    -1.532351    -10.887125    12.263753    -0.233310    1.741820    -13.801432    -1.191316    -15.701337    -3.420371    24.378695    -44.881496    65.197105    -24.245678    29.924208    -22.224686    -73.384277    124.812737    16.318375    48.211361    22.919954    0.402439    2.127501    35.030544    36.433784    6.732581    20.017511    14.847311    72.888588    -113.024414    -23.274368    9.145808    -2.189195    1.840707    -1.674285    2.102083    5.472142    2.702732    -2.263126    -10.906048    26.204781    -0.037371    -7.202997    1.094414    -9.243412    15.103455    6.910609    3.138471    -11.481251    -18.565805    
15.073627    89.037132    -46.556919    6.711315    2.648710    -34.364582    4.917545    -5.522955    -1.529635    -11.015079    12.102315    -0.184364    1.845987    -13.680784    -1.131867    -15.695992    -3.380341    24.342514    -45.080685    65.066605    -24.007887    29.566809    -22.125599    -73.737564    125.293007    16.410357    47.845993    22.906641    0.421738    2.149963    35.043789    36.469234    6.823836    19.969755    14.831842    72.870399    -113.075905    -23.329840    9.191917    -2.107079    1.843080    -1.391899    2.039914    5.543697    2.491536    -2.365174    -10.964969    26.207899    0.014776    -7.107547    1.283847    -9.243611    14.983769    6.800602    3.135159    -11.444614    -18.534903    
15.052751    89.039902    -46.581768    6.709536    2.636205    -34.465588    4.904420    -5.395341    -1.525029    -11.146402    11.944478    -0.132686    1.930185    -13.605799    -1.069035    -15.671713    -3.391096    24.306549    -45.332050    64.997147    -23.758917    29.386929    -22.174349    -73.945053    125.589493    16.364155    47.496277    22.888975    0.449068    2.174074    35.066490    36.502377    6.914926    20.014271    14.837107    72.807709    -113.329208    -23.425358    9.182375    -2.039640    1.815174    -1.195975    1.970229    5.625877    2.378825    -2.470860    -11.017122    26.198793    0.041713    -7.038584    1.476890    -9.228187    14.862510    6.688510    3.134819    -11.406461    -18.498167    
15.043719    89.043884    -46.610569    6.733952    2.637575    -34.569996    4.873956    -5.280025    -1.518113    -11.263311    11.817239    -0.083345    1.982396    -13.616305    -1.013917    -15.646629    -3.417388    24.267981    -45.586266    64.953773    -23.484577    29.246155    -22.190311    -74.145012    125.935402    16.402020    47.227512    22.870783    0.428577    2.194625    35.092289    36.592396    7.007542    19.974451    14.807343    72.797852    -113.449760    -23.498423    9.250761    -1.992021    1.749325    -1.117858    1.893051    5.720881    2.395918    -2.571220    -11.055071    26.173607    0.037747    -7.006394    1.662230    -9.194566    14.747346    6.583587    3.135871    -11.367878    -18.459044    
15.048040    89.048386    -46.642696    6.784455    2.653667    -34.674061    4.825537    -5.179750    -1.508661    -11.357547    11.741597    -0.040217    1.995086    -13.746056    -0.967862    -15.660731    -3.380336    24.226130    -45.704052    64.871742    -23.314066    29.059599    -22.122904    -74.394470    126.378944    16.526108    46.990612    22.850920    0.447610    2.213306    35.127441    36.643734    7.094773    20.045128    14.850891    72.717422    -113.798111    -23.606489    9.247761    -1.964952    1.641428    -1.173622    1.806696    5.832434    2.556198    -2.658459    -11.073256    26.132412    0.001833    -7.016379    1.830701    -9.142487    14.645486    6.493334    3.136706    -11.329476    -18.420906    
15.065615    89.053024    -46.677437    6.857022    2.682966    -34.774727    4.759348    -5.092766    -1.497476    -11.422127    11.727560    -0.003246    1.964830    -14.009600    -0.935354    -15.680961    -3.358742    24.182775    -45.772556    64.826965    -23.227238    28.986488    -22.192669    -74.523170    126.666260    16.500591    46.715717    22.834814    0.466782    2.230218    35.148403    36.706501    7.202399    20.085026    14.859501    72.671036    -114.054184    -23.702456    9.320209    -1.955059    1.491692    -1.363804    1.708032    5.965197    2.854412    -2.727228    -11.069059    26.079432    -0.062663    -7.068534    1.976157    -9.073904    14.563128    6.421600    3.136568    -11.291597    -18.385473    
15.095162    89.057899    -46.714100    6.945877    2.722181    -34.869892    4.675545    -5.014597    -1.486246    -11.455338    11.774014    0.027822    1.897497    -14.400584    -0.916870    -15.694448    -3.386462    24.137396    -45.855312    64.830215    -23.128195    29.021980    -22.311523    -74.568695    126.893982    16.450275    46.459255    22.828623    0.466540    2.247174    35.168270    36.790043    7.302818    20.111910    14.848853    72.644058    -114.353294    -23.784719    9.368531    -1.957317    1.303859    -1.678844    1.593503    6.122605    3.274568    -2.775780    -11.041786    26.021013    -0.150131    -7.159277    2.094555    -8.992558    14.505226    6.369288    3.135548    -11.254231    -18.352156    
15.134926    89.063683    -46.752064    7.044834    2.766528    -34.958103    4.573615    -4.937979    -1.478030    -11.459133    11.869669    0.048398    1.806901    -14.895562    -0.905891    -15.744686    -3.365562    24.086094    -45.819115    64.780556    -23.098976    28.967291    -22.294285    -74.701286    127.330589    16.577705    46.222958    22.836517    0.466851    2.265340    35.189453    36.868881    7.390012    20.160595    14.851103    72.605644    -114.699226    -23.859512    9.393437    -1.967251    1.084929    -2.108145    1.459939    6.305166    3.801587    -2.807060    -10.991417    25.962788    -0.254834    -7.282723    2.182929    -8.903004    14.475605    6.335670    3.134249    -11.217426    -18.318745    
15.183297    89.071533    -46.790962    7.149262    2.810682    -35.038803    4.452393    -4.854080    -1.476294    -11.442810    11.998816    0.069060    1.706536    -15.469857    -0.905632    -15.801049    -3.360044    24.029860    -45.753876    64.730766    -23.123539    29.020649    -22.344967    -74.743477    127.628365    16.568922    45.914684    22.862877    0.448101    2.289285    35.206905    36.962608    7.465606    20.129181    14.847772    72.600609    -114.957062    -23.889284    9.409319    -1.982517    0.842740    -2.643115    1.305166    6.510714    4.424522    -2.829151    -10.918131    25.909346    -0.372784    -7.433304    2.238352    -8.809969    14.477610    6.321366    3.133374    -11.181512    -18.282991    
15.238982    89.082809    -46.830704    7.256355    2.849236    -35.113464    4.311194    -4.753377    -1.482770    -11.425176    12.145117    0.088147    1.625370    -16.095219    -0.900273    -15.843972    -3.409747    23.974596    -45.750053    64.696243    -23.096811    29.099924    -22.429594    -74.751923    127.971016    16.596066    45.573845    22.904736    0.484081    2.330028    35.217972    36.997131    7.538064    20.181959    14.895843    72.533569    -115.375374    -23.929001    9.318291    -2.002971    0.584924    -3.271731    1.128936    6.735737    5.131598    -2.853900    -10.822649    25.863544    -0.502013    -7.606784    2.258147    -8.717831    14.514252    6.329329    3.133678    -11.147024    -18.242983    
15.300793    89.098740    -46.871559    7.365288    2.878356    -35.186245    4.148176    -4.627514    -1.496581    -11.410464    12.294395    0.105850    1.573675    -16.749817    -0.892367    -15.916128    -3.404243    23.914619    -45.664215    64.576920    -23.111134    28.985132    -22.349779    -74.917542    128.584442    16.810923    45.164021    22.967154    0.442379    2.384799    35.214146    37.110519    7.610570    20.117483    14.811838    72.560875    -115.589661    -23.929567    9.262767    -2.029446    0.317015    -3.972795    0.933252    6.976749    5.903419    -2.894639    -10.707524    25.827692    -0.641340    -7.801734    2.240140    -8.631044    14.588363    6.366331    3.135952    -11.115228    -18.197798    
